<?xml version="1.0" ?><!DOCTYPE svg  PUBLIC '-//W3C//DTD SVG 1.1//EN'  'http://www.w3.org/Graphics/SVG/1.1/DTD/svg11.dtd'><svg enable-background="new 0 0 32 32" height="32px" version="1.1" viewBox="0 0 32 32" width="32px" xml:space="preserve" xmlns="http://www.w3.org/2000/svg" xmlns:xlink="http://www.w3.org/1999/xlink"><g id="play"/><g id="stop"/><g id="pause"/><g id="replay"/><g id="next"/><g id="Layer_8"/><g id="search"/><g id="list"/><g id="love"/><g id="menu"/><g id="add"/><g id="headset"/><g id="random"/><g id="music"/><g id="setting"><g><g><path d="M27,18c0.55,0,1-0.45,1-1v-2c0-0.55-0.45-1-1-1     h-1.746c-0.55,0-1.124-0.378-1.275-0.841c-0.152-0.462-0.411-1.9-0.022-2.289l1.235-1.235c0.389-0.389,0.389-1.025,0-1.414     l-1.414-1.414c-0.389-0.389-1.025-0.389-1.414,0l-1.236,1.236c-0.389,0.389-1.057,0.528-1.483,0.31S18,7.296,18,6.747V5     c0-0.55-0.45-1-1-1h-2c-0.55,0-1,0.45-1,1v1.747c0,0.55-0.378,1.124-0.84,1.276c-0.463,0.151-1.899,0.41-2.288,0.021L9.635,6.807     c-0.389-0.389-1.025-0.389-1.414,0L6.807,8.221c-0.389,0.389-0.389,1.025,0,1.414l1.237,1.237     c0.389,0.389,0.528,1.057,0.31,1.484C8.135,12.783,7.296,14,6.746,14H5c-0.55,0-1,0.45-1,1v2c0,0.55,0.45,1,1,1h1.746     c0.55,0,1.124,0.378,1.275,0.84c0.152,0.462,0.41,1.898,0.021,2.287l-1.236,1.236c-0.389,0.389-0.389,1.025,0,1.414l1.414,1.414     c0.389,0.389,1.025,0.389,1.414,0l1.235-1.235c0.389-0.389,1.057-0.528,1.485-0.31C12.783,23.865,14,24.704,14,25.254V27     c0,0.55,0.45,1,1,1h2c0.55,0,1-0.45,1-1v-1.746c0-0.55,0.378-1.124,0.84-1.275c0.463-0.152,1.899-0.411,2.288-0.022l1.235,1.235     c0.389,0.389,1.025,0.389,1.414,0l1.414-1.414c0.389-0.389,0.389-1.025,0-1.414l-1.235-1.235     c-0.389-0.389-0.528-1.057-0.31-1.483C23.865,19.217,24.704,18,25.254,18H27z" fill="none" stroke="#231F20" stroke-miterlimit="10" stroke-width="2"/></g><circle cx="16" cy="16" fill="none" r="4.5" stroke="#231F20" stroke-miterlimit="10" stroke-width="2"/></g></g><g id="Layer_17"/><g id="Layer_18"/><g id="Layer_19"/><g id="Layer_20"/><g id="Layer_21"/><g id="Layer_22"/><g id="Layer_23"/><g id="Layer_24"/><g id="Layer_25"/><g id="Layer_26"/></svg>