<?xml version="1.0" ?><svg viewBox="0 0 32 32" xmlns="http://www.w3.org/2000/svg"><title/><g data-name="08" id="_08"><path d="M26.74,7.33A1,1,0,0,0,26,7H6a1,1,0,0,0-.74.33A1,1,0,0,0,5,8.1L6.84,26.27a3,3,0,0,0,3,2.73H22.17a3,3,0,0,0,3-2.72L27,8.1A1,1,0,0,0,26.74,7.33ZM23.17,26.09a1,1,0,0,1-1,.91H9.83a1,1,0,0,1-1-.92L7.11,9H24.89Z"/><path d="M11,5H21a1,1,0,0,0,0-2H11a1,1,0,0,0,0,2Z"/><path d="M13,23a1,1,0,0,0,1-1V14a1,1,0,0,0-2,0v8A1,1,0,0,0,13,23Z"/><path d="M19,23a1,1,0,0,0,1-1V14a1,1,0,0,0-2,0v8A1,1,0,0,0,19,23Z"/></g></svg>